<mxfile host="app.diagrams.net" modified="2020-06-18T17:39:19.883Z" agent="5.0 (Windows NT 10.0; Win64; x64) AppleWebKit/537.36 (KHTML, like Gecko) Chrome/83.0.4103.97 Safari/537.36" etag="WIn3YKK5dzYcovtYcNx0" version="13.2.6" type="github">
  <diagram name="Page-1" id="13e1069c-82ec-6db2-03f1-153e76fe0fe0">
    <mxGraphModel dx="509" dy="577" grid="1" gridSize="10" guides="1" tooltips="1" connect="1" arrows="1" fold="1" page="1" pageScale="1" pageWidth="1100" pageHeight="850" background="#ffffff" math="0" shadow="0">
      <root>
        <mxCell id="0" />
        <mxCell id="1" parent="0" />
        <mxCell id="kgX18TGKbtOsNnbbLTPr-4" value="BoardDeleteController" style="rounded=0;whiteSpace=wrap;html=1;" parent="1" vertex="1">
          <mxGeometry x="60" y="115" width="120" height="40" as="geometry" />
        </mxCell>
        <mxCell id="kgX18TGKbtOsNnbbLTPr-5" value="Service" style="rounded=0;whiteSpace=wrap;html=1;" parent="1" vertex="1">
          <mxGeometry x="210" y="115" width="130" height="40" as="geometry" />
        </mxCell>
        <mxCell id="kgX18TGKbtOsNnbbLTPr-6" value="Dao" style="rounded=0;whiteSpace=wrap;html=1;" parent="1" vertex="1">
          <mxGeometry x="390" y="115" width="130" height="40" as="geometry" />
        </mxCell>
        <mxCell id="kgX18TGKbtOsNnbbLTPr-8" value="" style="endArrow=none;dashed=1;html=1;entryX=0.5;entryY=1;entryDx=0;entryDy=0;" parent="1" target="kgX18TGKbtOsNnbbLTPr-5" edge="1">
          <mxGeometry width="50" height="50" relative="1" as="geometry">
            <mxPoint x="275" y="185" as="sourcePoint" />
            <mxPoint x="270" y="345" as="targetPoint" />
          </mxGeometry>
        </mxCell>
        <mxCell id="kgX18TGKbtOsNnbbLTPr-9" value="" style="endArrow=none;dashed=1;html=1;entryX=0.5;entryY=1;entryDx=0;entryDy=0;" parent="1" target="kgX18TGKbtOsNnbbLTPr-6" edge="1">
          <mxGeometry width="50" height="50" relative="1" as="geometry">
            <mxPoint x="455" y="425" as="sourcePoint" />
            <mxPoint x="225" y="165" as="targetPoint" />
          </mxGeometry>
        </mxCell>
        <mxCell id="kgX18TGKbtOsNnbbLTPr-10" value="" style="endArrow=none;dashed=1;html=1;entryX=0.5;entryY=1;entryDx=0;entryDy=0;" parent="1" edge="1">
          <mxGeometry width="50" height="50" relative="1" as="geometry">
            <mxPoint x="275" y="420" as="sourcePoint" />
            <mxPoint x="275" y="225" as="targetPoint" />
          </mxGeometry>
        </mxCell>
        <mxCell id="kgX18TGKbtOsNnbbLTPr-11" value="" style="html=1;points=[];perimeter=orthogonalPerimeter;" parent="1" vertex="1">
          <mxGeometry x="270" y="185" width="10" height="40" as="geometry" />
        </mxCell>
        <mxCell id="kgX18TGKbtOsNnbbLTPr-12" value="" style="html=1;points=[];perimeter=orthogonalPerimeter;" parent="1" vertex="1">
          <mxGeometry x="115" y="185" width="10" height="45" as="geometry" />
        </mxCell>
        <mxCell id="kgX18TGKbtOsNnbbLTPr-13" value="" style="html=1;points=[];perimeter=orthogonalPerimeter;" parent="1" vertex="1">
          <mxGeometry x="450" y="187" width="10" height="40" as="geometry" />
        </mxCell>
        <mxCell id="kgX18TGKbtOsNnbbLTPr-14" value="delete(Board board)" style="html=1;verticalAlign=bottom;endArrow=block;" parent="1" edge="1">
          <mxGeometry x="-0.0578" width="80" relative="1" as="geometry">
            <mxPoint x="125" y="197" as="sourcePoint" />
            <mxPoint x="270" y="197" as="targetPoint" />
            <mxPoint as="offset" />
          </mxGeometry>
        </mxCell>
        <mxCell id="kgX18TGKbtOsNnbbLTPr-15" value="delete(Board board)" style="html=1;verticalAlign=bottom;endArrow=block;" parent="1" edge="1">
          <mxGeometry x="-0.0578" width="80" relative="1" as="geometry">
            <mxPoint x="281" y="196.99999999999977" as="sourcePoint" />
            <mxPoint x="450" y="197" as="targetPoint" />
            <mxPoint as="offset" />
          </mxGeometry>
        </mxCell>
        <mxCell id="kgX18TGKbtOsNnbbLTPr-31" value="" style="endArrow=none;dashed=1;html=1;entryX=0.54;entryY=1.071;entryDx=0;entryDy=0;entryPerimeter=0;" parent="1" target="kgX18TGKbtOsNnbbLTPr-12" edge="1">
          <mxGeometry width="50" height="50" relative="1" as="geometry">
            <mxPoint x="120" y="420" as="sourcePoint" />
            <mxPoint x="285" y="235" as="targetPoint" />
          </mxGeometry>
        </mxCell>
        <mxCell id="kgX18TGKbtOsNnbbLTPr-32" value="" style="endArrow=none;dashed=1;html=1;entryX=0.5;entryY=1;entryDx=0;entryDy=0;exitX=0.46;exitY=-0.031;exitDx=0;exitDy=0;exitPerimeter=0;" parent="1" source="kgX18TGKbtOsNnbbLTPr-12" target="kgX18TGKbtOsNnbbLTPr-4" edge="1">
          <mxGeometry width="50" height="50" relative="1" as="geometry">
            <mxPoint x="295" y="265" as="sourcePoint" />
            <mxPoint x="295" y="245" as="targetPoint" />
          </mxGeometry>
        </mxCell>
      </root>
    </mxGraphModel>
  </diagram>
</mxfile>
